<svg id="Layer_1" data-name="Layer 1" xmlns="http://www.w3.org/2000/svg" viewBox="0 0 584 559.4"><defs><style>.cls-1,.cls-5{fill:#338cb7;}.cls-1,.cls-2{isolation:isolate;}.cls-1{opacity:0.1;}.cls-2{fill:#fff;opacity:0.1;}.cls-3{fill:#b4bcbe;}.cls-4{fill:#b2c9d3;}</style></defs><g id="Frame"><g id="Circle"><path id="Left" class="cls-1" d="M111.9,146.2c-44.1,36.8-74.5,83-91.6,137.7A276.07,276.07,0,0,0,8.7,343c-.2,1.1-.4,2.3-.7,3.4v46c1.2,8.7,2.2,17.4,3.6,26.1a285.32,285.32,0,0,0,39.8,105A290.71,290.71,0,0,0,117,597.3c1,.8,2,1.7,3,2.6h3V137.4C119.3,140.2,115.6,143.2,111.9,146.2Z" transform="translate(-8 -40.6)"/><path id="Right" class="cls-1" d="M590.4,339.6A279.58,279.58,0,0,0,565.9,249Q536.05,184.5,483,142.3v455c5.6-5,11.2-9.9,16.7-15A288.19,288.19,0,0,0,566,490.2a293.15,293.15,0,0,0,24.1-85.5c.8-6.4,1.3-12.9,1.9-19.3V354.5C591.5,349.5,590.9,344.5,590.4,339.6Z" transform="translate(-8 -40.6)"/></g><rect id="Mobile_LCD" data-name="Mobile LCD" class="cls-2" x="119.1" y="43.3" width="350.9" height="516.1"/><path id="Mobile" class="cls-3" d="M477.2,599.9c-.1-2.5-.2-5-.2-7.5V110c0-5.1-.4-10-2.8-14.5-4-7.7-10.7-11-19.1-11.5-1-.1-2,0-3,0q-149.85-.15-299.6-.1c-8.5,0-15.9,2.3-20.4,10-1.8,3-2.6,6.8-3.5,10.2a20.81,20.81,0,0,0-.1,5V592.5c0,2.5-.2,5-.3,7.5h-6c-3-1.8-4.1-4.6-4.2-8s-.1-7-.1-10.5v-303c.1-2-.4-3.5-2.6-4.3-2.8-1-3.5-3.3-3.5-6v-30c0-2.8.8-5,3.6-5.9,2.2-.7,2.5-2.3,2.4-4.3a41.7,41.7,0,0,1,0-5c.1-2.2-.5-3.8-2.8-4.6s-3.2-2.7-3.2-5.1c0-10.3-.1-20.7.1-31,0-1.7,1.1-4.4,2.4-4.9,3.4-1.5,3.5-3.9,3.4-6.9V104c0-35.6,30.7-63.5,62.8-63.4q122.7.3,245.3,0c26.5,0,53.3,19.2,60.6,47.7.5,1.9,1.1,3.8,1.7,5.7V591.9l-9,8ZM308.7,65.6c6.5,0,13,.1,19.4-.1,1,0,2-1.1,3-1.7-1-.6-2-1.6-3.1-1.7-12.6-.1-25.3-.1-37.9,0-1,0-2,1.1-2.9,1.8,1,.6,2,1.6,3.1,1.6C296.4,65.7,302.5,65.6,308.7,65.6ZM241.5,64a5.19,5.19,0,0,0-5.2-5,5,5,0,0,0-5.1,5,5.16,5.16,0,1,0,10.3,0Zm10.3,2.7c3.2-.3,4.6-1.6,4.1-3.6a5.1,5.1,0,0,0-3.2-2.9,2.67,2.67,0,0,0-3.3,1.8,2.88,2.88,0,0,0-.1,1.3C249.6,64.7,251.1,65.9,251.8,66.7Z" transform="translate(-8 -40.6)"/></g><g id="Support"><path class="cls-4" d="M582.74,286.69c-.6,1.5-1.3,3-2,4.6-.8,1.8-1.2,2.1-3.1,1.8a10.76,10.76,0,0,0-4.7.4c-1.3.3-1.4.3-2.1-.7a9.78,9.78,0,0,0-3.6-3.1c-1.6-.8-1.7-1.3-.8-2.8a21.16,21.16,0,1,0-36.4-.4,8.79,8.79,0,0,1,.6,1,1.38,1.38,0,0,1-.5,2,8.79,8.79,0,0,1-1,.6,8.61,8.61,0,0,0-3,2.7,1.77,1.77,0,0,1-2.3.8,11.84,11.84,0,0,0-5.3-.4c-1.7.2-2,0-2.6-1.5s-1.3-3-1.8-4.5c-.5-1.3-.3-1.7.8-2.5a10.34,10.34,0,0,0,4.5-7.6,10.14,10.14,0,0,0-2.3-7.7,17.53,17.53,0,0,0-2.4-2.3,1.67,1.67,0,0,1-.7-2.2c.7-1.8,1.4-3.5,2.2-5.3.5-1,1-1.2,2.2-1a10.65,10.65,0,0,0,12.4-12.3c-.2-1.3,0-1.8,1.2-2.4,1.6-.7,3.3-1.4,4.9-2a1.85,1.85,0,0,1,2.5.8,10.74,10.74,0,0,0,17.3.3c1.1-1.4,1.4-1.6,3.1-1s3.1,1.2,4.6,1.9c1.1.5,1.3.9,1.2,2.2a11.63,11.63,0,0,0,.3,4.9,10.77,10.77,0,0,0,11.8,7.6c1.7-.3,2.2-.1,2.9,1.5s1.4,3.4,2.1,5v1c-.4.4-.9.8-1.3,1.2a10.58,10.58,0,0,0,0,17.1,15.93,15.93,0,0,1,1.3,1.3Z" transform="translate(-8 -40.6)"/><path class="cls-4" d="M548.74,287.69h5.7A2.73,2.73,0,0,1,557,289a4.93,4.93,0,0,0,2.6,1.9c1.8.7,3.6,1.4,5.3,2.1,2.1.9,2.8,2.6,3,4.7l.9,14.7a3,3,0,0,1-2.5,3.2c-1.9.3-3.8.5-5.7.7a104.32,104.32,0,0,1-15.8.5c-4.5-.2-9.1-.6-13.6-1.1-2.3-.2-3.2-1.4-3.1-3.7.2-3.8.5-7.6.7-11.4a19.27,19.27,0,0,1,.1-2.4c.1-2.6,1.1-4.6,3.8-5.6,1.5-.5,3-1.2,4.5-1.8a4.81,4.81,0,0,0,2.7-1.9,2.73,2.73,0,0,1,2.6-1.3C544.74,287.69,546.74,287.69,548.74,287.69Z" transform="translate(-8 -40.6)"/><path class="cls-4" d="M548.64,286.69h-4c-1.1,0-1-.2-1.4-1.2a15.5,15.5,0,0,1-1.5-4.6c-1.2-.8-1.4-2.1-1.7-3.4a2.88,2.88,0,0,1,.5-2.8,2.34,2.34,0,0,0,.2-1.2c0-1.3-.1-2.6,0-3.9a3.26,3.26,0,0,1,1.9-3.1,1,1,0,0,0,.4-.5,5.85,5.85,0,0,1,6.6-3c4.9,1.2,6.3,3.8,6.6,7.6a13.33,13.33,0,0,1,0,2c0,.9-.4,1.9.7,2.6a1.8,1.8,0,0,1,.3,1.1l-.6,3a2.62,2.62,0,0,1-.5.9,2.23,2.23,0,0,0-1.1,2.2,3.36,3.36,0,0,1-.5,1.4,8.8,8.8,0,0,0-.5,1.5c-.1,1-.3,1.2-1.3,1.3a28.08,28.08,0,0,1-4.1.1Z" transform="translate(-8 -40.6)"/><path class="cls-4" d="M581.37,531.62v4.3c0,.4-.1.9-.1,1.3a35.92,35.92,0,0,1-3.9,12.8,33.4,33.4,0,0,1-7.4,9.3,38.37,38.37,0,0,1-5.6,4.1,31.87,31.87,0,0,1-14.3,4.4,34.49,34.49,0,0,1-12.4-1.2,2.23,2.23,0,0,0-1.4,0c-4.3,1.1-8.6,2.1-12.9,3.2-.7.2-1.4.3-2.1.5a3.51,3.51,0,0,1-4.1-2.8v-1.9c.2-2.4.4-4.7.5-7.1.1-1.7.3-3.4.4-5.2a3.66,3.66,0,0,0-.4-2.3,24.42,24.42,0,0,1-2.6-5.7,35.2,35.2,0,0,1-1.9-14,33.88,33.88,0,0,1,13.3-24.6,32.46,32.46,0,0,1,13.6-6.2c1.4-.3,2.7-.5,4.1-.7h6.1c.4,0,.8.1,1.2.1a33.19,33.19,0,0,1,9.8,2.7,36.11,36.11,0,0,1,10,6.8,31.36,31.36,0,0,1,4.9,6,34.29,34.29,0,0,1,4.9,13C581.17,529.42,581.27,530.52,581.37,531.62Zm-30.2,2.3a4,4,0,1,0-4.1,3.9h.1A4.13,4.13,0,0,0,551.17,533.92Zm-20.7-.1a4,4,0,0,0,3.9,4,4,4,0,0,0,.3-7.9h-.3a3.73,3.73,0,0,0-3.9,3.9Zm33.5,0a4,4,0,0,0-3.9-4H560a4,4,0,0,0-4,4,4.15,4.15,0,0,0,4,4,4.08,4.08,0,0,0,4-4Z" transform="translate(-8 -40.6)"/><path class="cls-4" d="M86.16,218.06v26.6a9.79,9.79,0,0,1-1.4,3.7,8.49,8.49,0,0,1-5.9,3.8c-1.1.2-1.1.2-1.1,1.3v3.7a3.08,3.08,0,0,1-2.2,3.4h-1.4c-.5-.3-1-.5-1.5-.8-3.8-2.2-7.5-4.5-11.2-6.8a4.1,4.1,0,0,0-2.6-.7H47.26a8.47,8.47,0,0,1-8.6-7.4,27.15,27.15,0,0,1-.1-2.9c0-.7-.3-1-1-.8a3.53,3.53,0,0,0-1.3.8l-10.4,10.4a17.5,17.5,0,0,1-2,1.9,3,3,0,0,1-4.7-2.8v-8.8c0-1.5,0-1.5-1.4-1.7a11.25,11.25,0,0,1-9.5-9.2c-.1-.3-.1-.5-.2-.8v-38.2c.1-.5.2-1.1.3-1.6a11.09,11.09,0,0,1,10.6-8.6h45.2a10.13,10.13,0,0,1,7.2,2.9,11,11,0,0,1,3.7,8.5v15c0,1.2,0,1.2,1.2,1.2h1.4a8.29,8.29,0,0,1,7.5,4.7A23.26,23.26,0,0,1,86.16,218.06Zm-14.3,34.3c0-.5.1-.8.1-1.1a14.77,14.77,0,0,1,.1-2.1,2.82,2.82,0,0,1,3-2.7h2.5a2.73,2.73,0,0,0,2.8-2.8v-24.9a2.91,2.91,0,0,0-2.1-2.4,20.85,20.85,0,0,0-2.5,0c-.4,0-.6.2-.6.7v13.1a11.13,11.13,0,0,1-4,8.5,10.82,10.82,0,0,1-7.3,2.7H45.26a.53.53,0,0,0-.6.6v2.3a2.67,2.67,0,0,0,2.5,2.3h13.5a3.89,3.89,0,0,1,2.3.7c2.6,1.6,5.3,3.2,8,4.8A2.94,2.94,0,0,1,71.86,252.36Zm-33-35.3v2a2.6,2.6,0,0,0,5.2-.1v-2.5a5.1,5.1,0,0,1,2.6-4.9,9.45,9.45,0,0,0,4-10.8,9.62,9.62,0,0,0-18.6.8,2.64,2.64,0,0,0,1.9,3.1,2.57,2.57,0,0,0,3.2-1.8c.1-.2.1-.5.2-.7a4.54,4.54,0,0,1,4-3,4.35,4.35,0,0,1,4.1,2.7,4.22,4.22,0,0,1-1.8,5.4,10.34,10.34,0,0,0-3.5,3.4A11.74,11.74,0,0,0,38.86,217.06Zm5.3,10.1a2.55,2.55,0,0,0-2.7-2.6,2.7,2.7,0,0,0-2.5,2.6,2.65,2.65,0,0,0,2.6,2.6h0a2.65,2.65,0,0,0,2.6-2.6Z" transform="translate(-8 -40.6)"/><path class="cls-5" d="M290.5,497c-2.1-1-4.2-2-6.2-3.1-9.2-4.9-13.8-12.5-14.1-23-.3-9,2.1-16.8,8.9-22.9,5.4-4.8,11.9-6.7,18.8-6.9a156.59,156.59,0,0,1,19.4.6c8.9.8,15.4,5.7,19.8,13.5,2.8,5,3,5.1,8.6,3.8a62.29,62.29,0,0,0,47.8-53.4c.4-3,.6-6,.7-9q0-49.5.1-99c.1-16.8-3.2-32.8-11.7-47.4-14.6-25-36-40.6-64.8-45.2a84.09,84.09,0,0,0-52.4,8.2c-20.1,10.3-34.9,25.8-43.6,46.8a92.49,92.49,0,0,0-6.9,35.6v94.5c0,6.9-1.5,13.2-5.6,18.8-5.8,8-13.9,11.7-23.5,12.3a116.92,116.92,0,0,1-14.5,0c-12.5-.7-23.2-7.8-27.5-20.3-.3-.9-.8-1.8-1.1-2.7v-61a23.88,23.88,0,0,1,1.5-3.7c2.7-4.1,5-8.7,8.5-12.1,5.7-5.5,13.2-7.5,21.1-7.4h17.5c6.2,0,6.3-.2,6.5-6.5.2-9.5-.1-19,1.1-28.4,3.5-25.8,14.8-47.6,34.3-65.1A101.28,101.28,0,0,1,269,192.9c7.4-2.4,15.1-3.9,22.6-5.8h26a3.79,3.79,0,0,0,1.3.6c26.4,3.7,48.5,15.4,66.2,35.4a104.67,104.67,0,0,1,23.6,46.1c3,12.9,3,26.1,2.9,39.2,0,5,.5,5.4,5.4,5.5,7,.1,14-.1,21,.2,13.6.7,23.1,8,27.6,20.7.3.8.7,1.5,1,2.3v61a8.26,8.26,0,0,0-.7,1.3c-5.3,14.8-15.1,21.8-30.9,21.8-7.8,0-15.7.6-23.1-2.6-1.8-.7-2.8,0-3.3,1.8-.4,1.5-.9,2.9-1.4,4.3a78.22,78.22,0,0,1-26.7,37.1,79.77,79.77,0,0,1-36.4,15.4c-1.9.3-4.5,1.5-5.2,3.1-3.8,8.8-10.7,13.7-19.3,16.8H290.5ZM197.6,363.5V336.1c0-4.2-.6-4.8-4.5-4.9-6.7-.1-13.3-.2-20,0-8,.3-13.5,6.2-13.6,14.3-.1,14.7-.1,29.3,0,43.9.1,8.6,5.9,14.2,14.5,14.3,2.8,0,5.7-.2,8.5,0,8.7.9,15.7-7.5,15.2-15.4C197.2,380.2,197.6,371.8,197.6,363.5Zm252,4.1V346.2c-.1-9-5.6-14.8-14.5-15-6.1-.1-12.3-.1-18.5,0-4.6.1-5.1.5-5.1,5.2-.1,8.3,0,16.6,0,24.9,0,9.5-.2,19,.1,28.4.2,8.5,6,13.9,14.4,14h9c8.8-.1,14.6-5.9,14.7-14.8C449.7,381.9,449.6,374.7,449.6,367.6ZM305.4,479.8h0c2.5,0,5,.2,7.5,0,3.4-.3,6.5-1.6,8.5-4.6,4.6-6.9.6-15.5-8.2-16.7a70.45,70.45,0,0,0-15.9,0,11.54,11.54,0,0,0-10.1,10.8c0,5,4.5,9.8,10.2,10.5A53.4,53.4,0,0,0,305.4,479.8Z" transform="translate(-8 -40.6)"/><path class="cls-4" d="M51.82,468.07a3.64,3.64,0,0,1,1.7,2.3c1.5,4.5,3,9.1,4.5,13.6.6,1.7.3,2.6-1.2,3.6s-3.1,2.1-4.7,3.1c-.8.5-.8.5-.5,1.4a31.85,31.85,0,0,0,4.9,9.3,34.87,34.87,0,0,0,8,7.8,36.58,36.58,0,0,0,8.8,4.5c.5.2.8.1,1.2-.4.9-1.6,2-3.1,3-4.7a2.81,2.81,0,0,1,3.8-1.3l6.3,2.1,7.2,2.4a3.26,3.26,0,0,1,2.4,2v7.6a.37.37,0,0,0-.1.3,11.52,11.52,0,0,1-5,8,15.44,15.44,0,0,1-4.4,1.9h-6a.9.9,0,0,0-.5-.1c-1.3-.1-2.6-.2-3.9-.4a51.56,51.56,0,0,1-17.5-6.2,50.88,50.88,0,0,1-9.2-6.8,56,56,0,0,1-7.8-9,50.89,50.89,0,0,1-8.3-20.5,40.43,40.43,0,0,1-.6-10.4,11.2,11.2,0,0,1,5-8.1,12.94,12.94,0,0,1,4.7-1.9h8.2Z" transform="translate(-8 -40.6)"/></g></svg>